<?xml version="1.0" standalone="no"?>
<!DOCTYPE svg PUBLIC "-//W3C//DTD SVG 20010904//EN"
 "http://www.w3.org/TR/2001/REC-SVG-20010904/DTD/svg10.dtd">
<svg version="1.0" xmlns="http://www.w3.org/2000/svg"
 width="400.000000pt" height="100.000000pt" viewBox="0 0 400.000000 100.000000"
 preserveAspectRatio="xMidYMid meet">
<metadata>
Created by potrace 1.16, written by Peter Selinger 2001-2019
</metadata>
<g transform="translate(0.000000,100.000000) scale(0.100000,-0.100000)"
fill="#000000" stroke="none">
<path d="M358 843 c-16 -2 -28 -7 -28 -11 0 -4 -15 -7 -32 -7 -28 0 -33 -3
-30 -21 2 -16 -5 -26 -28 -35 -16 -8 -30 -20 -30 -26 0 -7 -8 -13 -18 -13 -11
0 -26 -8 -34 -17 -21 -24 -60 -103 -51 -103 4 0 -1 -6 -10 -12 -9 -7 -17 -30
-19 -50 -1 -23 -7 -38 -15 -38 -9 0 -13 -18 -13 -61 0 -50 3 -62 18 -66 14 -3
17 -12 14 -44 -3 -32 -1 -39 13 -39 12 0 15 -5 11 -17 -5 -11 1 -23 16 -34 12
-10 23 -28 23 -41 0 -14 5 -22 13 -20 8 1 11 -2 8 -7 -3 -5 9 -19 28 -32 20
-14 32 -28 28 -37 -2 -8 1 -18 9 -23 11 -7 11 -9 -3 -9 -12 0 -18 -8 -18 -25
0 -21 5 -25 30 -25 21 0 30 5 30 16 0 8 7 22 15 30 8 9 15 11 15 6 0 -13 171
-22 264 -13 75 6 81 6 100 -16 12 -14 31 -23 48 -23 23 0 28 4 28 25 0 20 -5
25 -27 26 -25 0 -26 1 -8 9 11 5 14 9 7 9 -7 1 -11 5 -8 10 4 5 0 12 -6 14 -7
3 -4 6 7 6 11 1 28 9 36 19 9 11 26 26 38 34 11 8 22 27 23 41 1 15 8 27 15
27 7 0 13 11 13 25 0 14 5 25 11 25 7 0 10 15 7 39 -3 35 0 41 20 46 21 5 23
10 20 62 -3 51 -6 58 -28 64 -21 6 -22 7 -5 9 11 1 14 4 8 7 -7 2 -13 15 -13
29 0 21 -30 87 -50 108 -5 5 -7 14 -4 20 2 6 -9 20 -25 31 -17 11 -32 27 -34
37 -3 12 -11 16 -21 12 -20 -8 -46 18 -46 46 0 17 -5 20 -27 17 -16 -2 -34 0
-41 6 -14 11 -197 19 -244 10z m212 -123 c0 -5 11 -10 25 -10 27 0 95 -54 95
-76 0 -8 7 -14 15 -14 8 0 17 -14 21 -35 3 -19 10 -35 15 -35 5 0 9 -47 9
-105 0 -58 -4 -105 -9 -105 -5 0 -12 -17 -16 -39 -6 -38 -47 -81 -77 -81 -7 0
-19 -9 -26 -20 -7 -11 -21 -20 -32 -20 -11 0 -20 -7 -20 -15 0 -12 -17 -15
-95 -15 -78 0 -95 3 -95 15 0 10 -10 15 -29 15 -17 0 -36 8 -43 18 -7 9 -25
23 -40 31 -16 8 -28 21 -28 29 0 8 -10 23 -22 34 -19 16 -23 31 -26 113 -5
117 3 176 28 203 11 12 20 24 20 27 0 17 62 66 89 71 17 4 31 10 31 15 0 5 47
9 105 9 63 0 105 -4 105 -10z"/>
</g>
</svg>
